<svg xmlns="http://www.w3.org/2000/svg" viewBox="0 0 64 64" width="64" height="64">
  <defs>
    <linearGradient id="shieldGrad" x1="0%" y1="0%" x2="100%" y2="100%">
      <stop offset="0%" stop-color="#06b6d4" />
      <stop offset="50%" stop-color="#6366f1" />
      <stop offset="100%" stop-color="#a855f7" />
    </linearGradient>
    <filter id="glow" x="-20%" y="-20%" width="140%" height="140%">
      <feGaussianBlur stdDeviation="3" result="blur" />
      <feComposite in="SourceGraphic" in2="blur" operator="over" />
    </filter>
  </defs>
  <!-- Background Shield Shape -->
  <path d="M32 4 L54 12 V28 C54 44 44 56 32 60 C20 56 10 44 10 28 V12 Z" fill="url(#shieldGrad)" filter="url(#glow)"/>
  <path d="M32 8 L50 15 V28 C50 41 41 52 32 55.5 C23 52 14 41 14 28 V15 Z" fill="#0f172a" opacity="0.92"/>
  <!-- Inner Keyhole & Lock -->
  <rect x="22" y="27" width="20" height="15" rx="3" fill="url(#shieldGrad)"/>
  <path d="M26 27 V21 C26 17.686 28.686 15 32 15 C35.314 15 38 17.686 38 21 V27" stroke="url(#shieldGrad)" stroke-width="3.5" fill="none" stroke-linecap="round"/>
  <circle cx="32" cy="33" r="2.5" fill="#0f172a"/>
  <path d="M32 34.5 V38" stroke="#0f172a" stroke-width="2.5" stroke-linecap="round"/>
</svg>
